<?xml version="1.0" standalone="no"?>
<!DOCTYPE svg PUBLIC "-//W3C//DTD SVG 20010904//EN"
 "http://www.w3.org/TR/2001/REC-SVG-20010904/DTD/svg10.dtd">
<svg version="1.0" xmlns="http://www.w3.org/2000/svg"
 width="600.000000pt" height="600.000000pt" viewBox="0 0 600.000000 600.000000"
 preserveAspectRatio="xMidYMid meet">
<metadata>
Created by potrace 1.11, written by Peter Selinger 2001-2013
</metadata>
<g transform="translate(0.000000,600.000000) scale(0.100000,-0.100000)"
fill="#000000" stroke="none">
<path d="M2847 5183 c-24 -4 -27 -8 -21 -26 4 -12 8 -31 9 -42 1 -17 8 -19 51
-16 123 9 364 1 447 -15 12 -2 39 -6 62 -9 147 -21 377 -96 550 -179 295 -142
555 -349 746 -594 26 -33 26 -34 67 -21 23 7 42 14 42 17 0 3 -26 37 -57 76
-142 177 -430 429 -491 431 -19 0 -27 5 -27 18 0 26 -210 147 -255 147 -12 0
-19 4 -16 9 3 5 0 11 -7 14 -158 65 -168 67 -187 57 -16 -8 -22 -6 -35 14 -9
13 -26 26 -38 29 -12 3 -47 12 -77 21 -30 9 -68 19 -85 22 -16 3 -50 10 -75
15 -103 23 -255 37 -410 36 -91 0 -178 -2 -193 -4z"/>
<path d="M2649 5156 c-2 -2 -22 -7 -43 -10 -131 -21 -351 -94 -511 -170 -223
-106 -467 -279 -613 -435 -19 -20 -53 -56 -76 -81 -217 -231 -418 -616 -496
-949 -29 -123 -29 -122 -35 -182 -4 -30 -8 -60 -10 -67 -3 -7 -8 -67 -11 -132
l-7 -120 34 11 c46 16 54 24 55 65 3 59 14 187 19 219 34 197 77 348 149 525
5 12 -4 19 -31 29 -34 13 -36 14 -18 28 11 7 35 18 55 23 30 8 40 19 70 77 43
85 151 248 217 331 293 363 722 632 1171 733 l102 23 -7 40 c-6 44 -8 48 -14
42z"/>
<path d="M5380 4460 c-47 -16 -218 -72 -381 -125 -239 -77 -298 -100 -302
-116 -7 -26 -45 -39 -79 -27 -29 10 -58 1 -673 -199 -110 -36 -276 -90 -370
-120 -93 -30 -181 -58 -195 -63 -14 -5 -108 -36 -210 -68 -422 -137 -917 -298
-1100 -357 -107 -35 -253 -82 -325 -105 -71 -23 -161 -52 -200 -65 -38 -13
-162 -53 -275 -90 -418 -135 -455 -148 -472 -165 -10 -11 -26 -16 -41 -13 -14
3 -146 -35 -323 -92 -380 -122 -345 -107 -334 -146 5 -17 11 -33 13 -35 3 -3
187 55 847 270 157 51 354 115 437 142 115 37 153 53 153 65 0 22 26 31 40 14
16 -19 126 18 133 46 5 20 43 27 49 9 4 -13 168 37 168 51 0 5 10 8 23 7 20
-1 151 40 802 252 99 32 270 88 380 124 110 36 245 80 300 97 55 18 102 33
105 34 5 1 224 72 695 225 332 108 589 191 790 257 352 114 440 143 453 151 9
6 10 16 1 40 -6 18 -14 32 -17 31 -4 0 -45 -13 -92 -29z m-1400 -480 c0 -5 -7
-10 -16 -10 -8 0 -12 5 -9 10 3 6 10 10 16 10 5 0 9 -4 9 -10z m-2650 -894 c0
-3 -4 -8 -10 -11 -5 -3 -10 -1 -10 4 0 6 5 11 10 11 6 0 10 -2 10 -4z"/>
<path d="M2986 4401 c-17 -7 -16 -10 12 -41 17 -19 36 -46 41 -61 9 -25 7 -27
-25 -34 -35 -6 -39 -11 -26 -32 7 -12 54 0 150 38 l23 9 -21 39 c-32 63 -103
101 -154 82z"/>
<path d="M2422 4378 c-64 -21 -75 -38 -31 -48 26 -6 29 -13 110 -269 36 -112
38 -125 24 -141 -32 -36 -13 -38 75 -8 85 28 109 48 66 54 -10 1 -22 6 -26 11
-4 4 -37 101 -74 216 -37 114 -70 207 -74 207 -4 -1 -35 -10 -70 -22z"/>
<path d="M2906 4369 c-78 -61 -78 -200 -1 -272 29 -26 94 -49 133 -45 32 3 28
33 -8 55 -51 30 -101 164 -83 220 10 30 7 63 -6 63 -5 0 -20 -9 -35 -21z"/>
<path d="M2610 4279 c-40 -25 -40 -47 2 -45 31 1 32 0 66 -94 18 -52 35 -115
37 -140 2 -25 4 -46 5 -47 0 -1 33 9 72 21 50 15 74 27 76 39 2 10 0 17 -5 16
-35 -6 -43 5 -78 112 -34 101 -61 147 -89 150 -6 1 -21 3 -33 4 -12 1 -36 -6
-53 -16z"/>
<path d="M2222 4272 c-7 -5 -16 -32 -21 -60 -4 -29 -16 -61 -26 -71 -22 -25
-15 -46 15 -46 21 0 27 -12 60 -114 41 -126 61 -152 112 -146 17 3 33 6 35 8
2 3 -27 101 -65 218 -68 209 -79 231 -110 211z"/>
<path d="M3140 4183 c0 -14 -13 -37 -30 -54 -26 -27 -32 -59 -10 -59 32 0 95
108 76 128 -17 16 -36 9 -36 -15z"/>
<path d="M2343 4190 c-33 -13 -19 -44 16 -35 33 8 35 11 28 30 -7 17 -13 18
-44 5z"/>
<path d="M2450 3938 c0 -12 -7 -29 -15 -38 -9 -10 -13 -25 -9 -34 6 -15 9 -15
30 5 28 26 34 89 9 89 -9 0 -15 -9 -15 -22z"/>
<path d="M4788 3705 c-10 -10 3 -38 24 -53 10 -7 27 -30 38 -51 l19 -38 -39
-16 c-40 -15 -51 -33 -27 -42 6 -3 50 8 97 24 76 25 85 31 82 52 -3 27 -44 83
-76 104 -25 17 -107 31 -118 20z"/>
<path d="M4713 3670 c-39 -24 -74 -88 -77 -144 -5 -80 43 -169 108 -200 42
-20 123 -30 131 -16 9 15 -4 50 -19 50 -52 0 -122 179 -104 263 12 57 0 71
-39 47z"/>
<path d="M4390 3570 c-14 -8 4 -50 20 -50 13 0 52 -78 45 -90 -3 -4 -19 -11
-35 -15 -21 -5 -30 -13 -30 -26 0 -25 11 -24 110 10 68 22 84 32 82 46 -6 31
-51 90 -83 109 -33 19 -90 28 -109 16z"/>
<path d="M4292 3524 c-60 -59 -75 -132 -47 -215 28 -78 86 -127 162 -135 60
-6 80 5 64 35 -7 11 -18 21 -27 21 -22 0 -70 82 -89 155 -17 60 -17 89 -1 125
4 9 0 24 -8 35 -13 19 -15 18 -54 -21z"/>
<path d="M3707 3542 c-23 -5 -18 -38 5 -34 14 2 16 -4 11 -32 -4 -28 -1 -36
16 -46 47 -24 102 26 80 73 -16 36 -58 51 -112 39z"/>
<path d="M3615 3495 c-14 -14 -25 -34 -26 -43 0 -9 -2 -24 -4 -33 -1 -9 1 -38
6 -65 8 -43 7 -51 -11 -66 -11 -9 -20 -23 -20 -32 0 -13 5 -14 26 -5 15 5 29
7 31 5 3 -3 24 -65 48 -138 l44 -133 -24 -21 c-47 -43 -13 -45 103 -7 114 38
134 56 70 61 -28 2 -38 9 -46 30 -10 24 -111 335 -142 435 -14 44 -21 45 -55
12z"/>
<path d="M4070 3467 c-36 -18 -50 -53 -38 -90 11 -29 11 -29 22 -8 12 21 12
21 29 1 33 -39 97 -13 97 39 0 26 -42 71 -67 71 -10 0 -29 -6 -43 -13z"/>
<path d="M4975 3469 c-4 -6 -4 -13 -1 -16 9 -9 -23 -62 -44 -73 -21 -11 -27
-44 -10 -55 5 -3 26 9 45 27 53 48 67 127 23 128 -4 0 -10 -5 -13 -11z"/>
<path d="M3900 3409 c-30 -10 -61 -22 -69 -24 -19 -7 -2 -24 29 -30 12 -2 25
-6 27 -9 2 -2 24 -64 48 -137 44 -133 44 -134 24 -155 -19 -20 -26 -44 -11
-44 26 2 206 68 209 77 3 7 -11 15 -31 18 -36 7 -41 15 -67 100 -27 92 -82
225 -93 224 -6 0 -36 -9 -66 -20z"/>
<path d="M3763 3353 c-16 -6 -17 -29 -3 -38 18 -11 50 6 50 26 0 19 -19 24
-47 12z"/>
<path d="M4570 3332 c0 -32 -20 -70 -47 -87 -25 -17 -27 -23 -14 -44 7 -11 14
-10 40 8 17 12 36 32 43 44 16 30 28 87 18 87 -5 0 -15 3 -24 6 -11 4 -16 0
-16 -14z"/>
<path d="M5760 3250 c-63 -21 -263 -86 -445 -145 -181 -59 -355 -115 -385
-125 -30 -10 -140 -46 -245 -80 -104 -34 -284 -92 -400 -130 -115 -37 -358
-116 -540 -175 -181 -59 -508 -165 -725 -235 -217 -71 -474 -154 -570 -185
-96 -31 -263 -85 -370 -120 -107 -35 -364 -118 -570 -185 -206 -66 -393 -127
-415 -135 -22 -7 -161 -53 -310 -100 -148 -48 -273 -89 -277 -91 -6 -4 6 -62
15 -70 3 -3 70 18 525 166 l224 72 16 -23 c9 -13 49 -62 88 -109 304 -362 773
-636 1239 -723 135 -26 147 -27 235 -34 354 -27 676 21 1000 149 389 154 707
404 967 759 65 88 193 305 193 327 0 4 -11 12 -25 18 -25 9 -25 10 -9 32 12
17 22 22 40 18 19 -5 26 0 38 26 56 123 132 395 150 538 12 97 17 148 20 223
2 43 5 79 7 81 2 2 103 36 224 76 121 39 236 77 255 85 19 7 37 13 40 12 9 -1
145 45 153 52 8 8 -11 71 -21 70 -4 0 -59 -18 -122 -39z m-624 -382 c-3 -57
-8 -114 -10 -128 -3 -14 -7 -42 -10 -62 -13 -84 -50 -239 -78 -323 -200 -598
-626 -1058 -1208 -1300 -101 -42 -308 -103 -410 -121 -14 -2 -34 -6 -45 -8
-97 -21 -441 -29 -577 -13 -401 45 -798 217 -1123 487 -114 95 -323 326 -308
340 4 5 31 15 58 23 28 9 64 20 80 26 17 6 185 61 375 121 190 61 370 120 400
130 30 10 183 60 340 110 157 51 310 100 340 110 30 10 153 50 273 89 120 39
226 78 234 87 9 8 22 13 31 9 8 -3 83 17 166 44 83 27 304 99 491 159 187 61
484 158 660 215 176 58 322 106 324 106 2 1 1 -45 -3 -101z"/>
<path d="M4368 2373 c-17 -4 -38 -58 -38 -99 0 -11 -9 -29 -19 -38 -25 -22
-16 -49 13 -42 19 5 24 -5 56 -106 43 -137 58 -158 111 -158 42 0 49 14 29 62
-5 13 -34 102 -65 198 -31 96 -59 178 -63 181 -4 3 -15 4 -24 2z"/>
<path d="M4488 2288 c-29 -10 -32 -16 -20 -35 11 -18 61 8 53 28 -5 13 -12 14
-33 7z"/>
<path d="M4174 2185 c-7 -18 3 -35 21 -35 12 0 12 -5 3 -26 -11 -23 -10 -29
10 -44 42 -34 103 11 83 61 -15 40 -106 74 -117 44z"/>
<path d="M4089 2155 c-84 -55 -95 -179 -24 -263 34 -39 83 -61 126 -57 13 1
32 3 42 4 25 2 6 36 -30 53 -57 28 -104 180 -70 228 14 20 13 61 -2 59 -3 0
-22 -11 -42 -24z"/>
<path d="M3427 2102 c-31 -34 -16 -83 30 -97 17 -4 29 1 48 19 22 22 23 29 14
53 -17 46 -62 58 -92 25z"/>
<path d="M3813 2072 c-29 -4 -29 -17 -2 -40 22 -18 49 -64 49 -82 0 -5 -6 -10
-13 -10 -24 0 -53 -28 -42 -39 13 -13 165 34 165 50 0 18 -28 64 -52 87 -28
25 -72 40 -105 34z"/>
<path d="M3710 2021 c-107 -112 -24 -301 131 -301 22 0 39 4 39 9 0 5 -19 29
-43 54 -53 54 -83 143 -73 218 9 64 -7 70 -54 20z"/>
<path d="M4583 2028 c-1 -13 -8 -27 -15 -33 -14 -10 -13 -45 1 -45 17 0 44 41
46 70 2 22 -2 30 -14 30 -10 0 -17 -9 -18 -22z"/>
<path d="M4319 1986 c-1 -3 -3 -10 -4 -16 -1 -5 -3 -17 -4 -25 0 -8 -12 -24
-26 -37 -26 -25 -20 -56 9 -45 41 16 71 114 39 125 -7 2 -14 1 -14 -2z"/>
<path d="M3467 1958 c-46 -16 -56 -23 -47 -33 6 -8 21 -15 32 -17 16 -2 30
-34 79 -181 32 -98 59 -189 59 -202 0 -13 4 -26 9 -29 15 -10 60 44 67 79 7
38 9 26 -58 243 -39 121 -56 162 -67 161 -9 0 -42 -10 -74 -21z"/>
<path d="M3233 1883 c-20 -8 -15 -20 20 -53 46 -41 80 -140 75 -216 -2 -37 1
-58 9 -61 15 -5 71 50 83 82 24 64 2 163 -47 207 -38 35 -107 55 -140 41z"/>
<path d="M3170 1862 c-41 -15 -80 -85 -80 -146 0 -100 65 -175 162 -184 45 -4
50 -3 45 12 -4 10 -7 21 -7 25 0 4 -11 13 -24 19 -37 17 -81 146 -72 216 6 56
2 67 -24 58z"/>
<path d="M3960 1849 c0 -11 -13 -34 -30 -51 -32 -31 -36 -43 -20 -53 26 -16
73 39 84 99 4 21 1 26 -15 26 -13 0 -19 -7 -19 -21z"/>
<path d="M2932 1780 c-23 -21 -28 -55 -13 -78 7 -11 9 -10 14 3 6 14 9 14 28
-4 33 -30 79 -7 79 39 0 55 -66 79 -108 40z"/>
<path d="M2788 1737 c-63 -21 -72 -33 -33 -43 31 -8 35 -15 74 -134 36 -110
37 -119 14 -135 -9 -7 -13 -17 -10 -22 10 -15 182 40 182 58 0 8 -7 13 -16 11
-26 -4 -44 27 -78 133 -35 107 -57 156 -69 154 -4 -1 -33 -11 -64 -22z"/>
<path d="M2551 1664 c-40 -17 -42 -44 -3 -44 39 0 61 -28 88 -106 30 -91 24
-140 -21 -158 -6 -2 -3 -11 7 -21 15 -17 18 -17 54 1 59 30 79 65 78 137 0 82
-32 144 -93 181 -30 19 -79 23 -110 10z"/>
<path d="M2398 1611 c-53 -18 -63 -38 -21 -43 26 -3 30 -12 86 -183 56 -174
58 -181 42 -209 -8 -16 -14 -31 -11 -33 2 -3 45 8 95 24 87 27 119 53 66 53
-31 0 -38 15 -100 210 -25 80 -51 157 -57 173 -12 31 -30 33 -100 8z"/>
<path d="M3495 1580 c-35 -13 -47 -34 -35 -64 11 -30 53 -50 87 -41 27 6 29
17 8 35 -8 7 -15 23 -15 35 0 29 -20 45 -45 35z"/>
<path d="M2707 3206 c-47 -15 -67 -25 -65 -36 2 -8 10 -16 18 -16 8 -1 20 -2
26 -3 6 0 18 -20 27 -43 31 -85 127 -389 127 -403 0 -8 -7 -18 -16 -23 -9 -5
-14 -16 -13 -25 4 -13 18 -11 104 17 66 21 100 37 100 46 0 8 -6 14 -13 12
-37 -7 -51 20 -120 235 -39 120 -73 228 -77 241 -8 26 -10 26 -98 -2z"/>
<path d="M3140 3150 c0 -11 11 -27 24 -35 21 -14 46 -61 46 -86 0 -5 -15 -12
-32 -17 -25 -7 -32 -13 -30 -28 2 -10 5 -20 6 -21 7 -8 186 61 186 70 0 16
-38 78 -61 100 -25 23 -63 37 -105 37 -27 0 -34 -4 -34 -20z"/>
<path d="M3042 3117 c-60 -61 -72 -159 -30 -241 34 -67 93 -105 168 -108 53
-2 69 14 40 39 -63 54 -79 76 -100 142 -21 65 -24 93 -18 166 4 42 -21 43 -60
2z"/>
<path d="M2547 2972 c-22 -3 -28 -8 -25 -25 2 -18 9 -21 36 -19 30 3 32 2 27
-21 -8 -32 19 -60 49 -51 28 8 36 16 41 42 4 22 -34 71 -57 73 -7 0 -20 1 -28
3 -8 1 -28 0 -43 -2z"/>
<path d="M2438 2927 c-55 -47 -69 -117 -30 -160 26 -29 50 -39 111 -44 86 -8
125 -24 129 -52 2 -13 -1 -28 -7 -34 -12 -12 -15 -57 -3 -57 4 0 25 12 46 26
48 33 69 79 56 126 -17 60 -54 81 -160 93 -36 4 -75 13 -87 21 -24 15 -30 38
-13 49 14 9 12 55 -2 55 -7 0 -25 -10 -40 -23z"/>
<path d="M3321 2933 c5 -30 -5 -55 -32 -81 -20 -19 -29 -37 -26 -46 8 -21 19
-20 51 5 29 22 42 49 51 100 5 26 2 29 -20 29 -14 0 -24 -3 -24 -7z"/>
<path d="M2173 2852 c-7 -4 -10 -17 -7 -29 5 -18 10 -20 37 -12 18 5 33 9 34
9 1 0 -1 -10 -6 -23 -12 -31 4 -57 34 -57 48 0 71 52 38 85 -31 31 -101 46
-130 27z"/>
<path d="M2093 2820 c-39 -23 -63 -67 -63 -112 1 -61 46 -94 140 -103 91 -8
120 -21 120 -54 0 -15 -4 -31 -10 -37 -5 -5 -7 -19 -4 -31 6 -21 7 -21 33 -6
143 89 84 233 -96 233 -74 0 -119 34 -90 69 8 9 11 26 8 38 l-6 23 -32 -20z"/>
<path d="M1770 2720 c-18 -4 -24 -12 -22 -26 2 -10 7 -20 11 -22 31 -11 49
-45 90 -168 l46 -139 37 -3 c70 -6 128 41 126 101 -2 28 -28 20 -28 -9 0 -18
-5 -25 -16 -22 -11 2 -29 41 -56 118 -39 117 -75 169 -116 171 -9 0 -24 2 -32
3 -8 2 -26 0 -40 -4z"/>
<path d="M1129 2691 c-49 -17 -74 -30 -72 -38 3 -7 15 -13 27 -13 29 0 33 -9
105 -230 33 -102 62 -192 66 -201 3 -8 -3 -25 -15 -39 -43 -49 -27 -51 98 -9
92 31 110 48 62 59 -13 3 -27 12 -31 20 -11 20 -149 443 -149 458 0 20 -15 19
-91 -7z"/>
<path d="M1667 2682 c-58 -39 -74 -95 -38 -131 21 -21 54 -19 84 7 22 19 22
27 -4 50 -19 18 -19 21 -4 36 17 17 17 47 0 53 -5 1 -22 -5 -38 -15z"/>
<path d="M2463 2662 c-19 -19 -16 -49 7 -72 11 -11 23 -20 28 -21 4 0 18 -3
32 -5 40 -8 70 4 70 27 0 19 -4 20 -35 15 -34 -7 -35 -6 -29 19 11 46 -38 71
-73 37z"/>
<path d="M1355 2586 c-48 -23 -56 -32 -49 -49 4 -12 11 -14 29 -7 17 7 27 4
38 -8 22 -25 90 -242 88 -281 -1 -33 0 -33 31 -27 59 12 149 49 145 60 -2 6
-14 13 -28 15 -31 4 -33 6 -74 139 -20 61 -46 123 -58 137 -27 32 -81 41 -122
21z"/>
<path d="M1762 2547 c-42 -24 -110 -97 -115 -125 -11 -59 41 -122 101 -122 35
0 94 19 104 34 11 16 10 48 -2 41 -40 -24 -73 -2 -83 56 -5 26 19 89 33 89 5
0 6 9 3 20 -6 23 -10 24 -41 7z"/>
<path d="M2106 2545 c-22 -23 -20 -42 9 -70 24 -25 41 -29 100 -25 37 2 35 1
29 27 -5 18 -10 19 -38 13 -33 -7 -33 -7 -32 29 1 32 -2 36 -25 39 -15 2 -34
-4 -43 -13z"/>
</g>
</svg>
